<svg xmlns="http://www.w3.org/2000/svg" data-name="Layer 1" viewBox="0 0 64 64" x="0px" y="0px"><path d="M52,58H12c-1.65,0-3-1.35-3-3V23c0-1.65,1.35-3,3-3H52c1.65,0,3,1.35,3,3V55c0,1.65-1.35,3-3,3ZM12,22c-.55,0-1,.45-1,1V55c0,.55,.45,1,1,1H52c.55,0,1-.45,1-1V23c0-.55-.45-1-1-1H12Z"/><path d="M10,49H5c-1.65,0-3-1.35-3-3v-14c0-1.65,1.35-3,3-3h5c.55,0,1,.45,1,1v18c0,.55-.45,1-1,1ZM5,31c-.55,0-1,.45-1,1v14c0,.55,.45,1,1,1h4V31H5Z"/><path d="M59,49h-5c-.55,0-1-.45-1-1V30c0-.55,.45-1,1-1h5c1.65,0,3,1.35,3,3v14c0,1.65-1.35,3-3,3Zm-4-2h4c.55,0,1-.45,1-1v-14c0-.55-.45-1-1-1h-4v16Z"/><path d="M22,38c-2.76,0-5-2.24-5-5s2.24-5,5-5,5,2.24,5,5-2.24,5-5,5Zm0-8c-1.65,0-3,1.35-3,3s1.35,3,3,3,3-1.35,3-3-1.35-3-3-3Z"/><path d="M42,38c-2.76,0-5-2.24-5-5s2.24-5,5-5,5,2.24,5,5-2.24,5-5,5Zm0-8c-1.65,0-3,1.35-3,3s1.35,3,3,3,3-1.35,3-3-1.35-3-3-3Z"/><path d="M32,16c-2.76,0-5-2.24-5-5s2.24-5,5-5,5,2.24,5,5-2.24,5-5,5Zm0-8c-1.65,0-3,1.35-3,3s1.35,3,3,3,3-1.35,3-3-1.35-3-3-3Z"/><path d="M32,22c-.55,0-1-.45-1-1v-5c0-.55,.45-1,1-1s1,.45,1,1v5c0,.55-.45,1-1,1Z"/><path d="M36,50h-8c-2.76,0-5-2.24-5-5,0-.55,.45-1,1-1s1,.45,1,1c0,1.65,1.35,3,3,3h8c1.65,0,3-1.35,3-3,0-.55,.45-1,1-1s1,.45,1,1c0,2.76-2.24,5-5,5Z"/></svg>
