<svg version="1.1" id="Layer_1" xmlns="http://www.w3.org/2000/svg" xmlns:xlink="http://www.w3.org/1999/xlink" x="0px" y="0px" width="100%" viewBox="0 0 1024 1024" enable-background="new 0 0 1024 1024" xml:space="preserve">

<path fill="#000000" opacity="1.000000" stroke="none" d="
M707.083130,423.999084 
	C705.942566,424.591339 704.537231,424.932434 703.701111,425.813599 
	C690.971924,439.227539 676.295898,449.601044 658.106628,454.012329 
	C625.093628,462.018677 595.233704,455.092010 569.789185,432.711456 
	C553.676697,418.539154 538.896484,402.852295 523.745178,388.065765 
	C533.885254,378.031067 543.877197,368.142883 554.555542,357.575470 
	C565.256348,368.501434 576.699646,380.077728 588.015442,391.777374 
	C595.594910,399.613953 603.692078,406.706116 613.965088,410.801971 
	C639.102234,420.824158 668.809387,408.400726 681.953064,382.433472 
	C703.136230,340.583038 672.799927,290.517792 625.940918,289.841705 
	C606.697937,289.564056 590.718628,296.626007 577.293518,310.196777 
	C538.734619,349.174042 500.111633,388.087921 461.502380,427.015350 
	C447.507507,441.125549 431.427521,451.525482 411.498199,455.111389 
	C380.777588,460.639069 353.555206,453.109039 329.678009,433.200104 
	C326.017151,430.147675 322.671600,426.717072 318.870453,423.172546 
	C318.870453,425.239563 318.870392,427.137543 318.870422,429.035522 
	C318.870911,462.701355 318.880707,496.367188 318.866669,530.033020 
	C318.862000,541.297424 313.274170,546.968628 302.014771,546.993408 
	C280.182007,547.041443 258.348938,547.025696 236.516144,546.983643 
	C227.255096,546.965820 222.910950,543.129761 221.662811,533.872864 
	C221.286209,531.079773 221.138412,528.235718 221.137695,525.414917 
	C221.107071,406.417664 221.104950,287.420441 221.100769,168.423187 
	C221.100723,167.089951 221.098099,165.756134 221.133743,164.423569 
	C221.439911,152.978668 225.562363,148.940979 237.044098,148.928116 
	C258.376953,148.904221 279.709869,148.889099 301.042694,148.915909 
	C313.706177,148.931839 318.724091,154.023972 318.740143,166.878723 
	C318.775726,195.378052 318.768219,223.877411 318.776459,252.376770 
	C318.779358,262.367157 318.776978,272.357544 318.776978,282.518524 
	C324.208984,277.738739 329.308197,272.658478 334.990784,268.347076 
	C374.044495,238.716827 428.132263,238.956665 466.208771,269.975098 
	C481.782837,282.662292 495.527191,297.595581 510.104065,311.506897 
	C510.824341,312.194275 511.546509,312.879639 513.343811,314.589783 
	C524.783508,302.736389 536.121765,290.834595 547.630615,279.100189 
	C563.632690,262.784546 582.421326,251.500610 605.278931,247.696182 
	C637.960388,242.256699 667.222961,249.952698 693.077393,270.578766 
	C697.820374,274.362610 702.241089,278.550323 707.203857,281.950439 
	C707.715149,279.371979 707.921875,277.395386 707.938049,275.417206 
	C708.266296,235.238190 708.572632,195.059036 708.883423,154.879898 
	C708.883484,154.879898 708.964966,155.011322 709.277344,154.928391 
	C713.240295,153.214447 716.886414,150.187576 720.541992,150.176147 
	C746.709045,150.094269 772.878052,150.626114 799.046387,150.962967 
	C799.046387,150.962967 799.012085,151.005142 799.146484,151.201050 
	C799.576172,151.556396 799.871460,151.715866 800.166687,151.875336 
	C800.166687,151.875336 800.056213,151.944031 800.167725,152.137909 
	C800.555664,152.533051 800.832092,152.734299 801.108521,152.935547 
	C801.108521,152.935562 801.008301,152.977570 801.036377,153.346741 
	C801.725037,159.611237 802.938782,165.504730 802.958313,171.402161 
	C803.113342,218.202225 803.104614,265.003204 802.996704,311.803528 
	C802.968140,324.194824 802.232971,336.584076 802.176025,348.975891 
	C802.138306,357.200989 802.981445,365.428467 802.997253,373.655731 
	C803.085022,419.456818 803.157104,465.258728 802.952332,511.059082 
	C802.906006,521.432983 801.740967,531.801880 801.090942,542.173096 
	C800.602417,542.732910 800.113892,543.292786 798.924072,543.942505 
	C792.774475,544.369995 787.328491,544.947998 781.877502,544.998779 
	C767.234741,545.135315 752.589600,545.002930 737.946228,545.100525 
	C736.062866,545.113037 734.184448,545.853943 732.303711,546.257385 
	C732.303711,546.257385 731.902527,546.201233 731.385864,545.841919 
	C724.460510,544.859009 718.051697,544.235352 711.642944,543.611694 
	C711.642944,543.611694 711.526672,543.511963 711.535156,543.182495 
	C711.236816,542.777405 710.929932,542.701660 710.623108,542.625916 
	C710.623108,542.625916 710.477478,542.508850 710.512207,542.164124 
	C710.269226,541.632751 709.991455,541.446045 709.713745,541.259338 
	C709.713745,541.259338 709.953796,541.082764 709.894409,540.745239 
	C709.207031,534.026428 708.076660,527.648315 708.036743,521.263367 
	C707.846069,490.766266 707.966919,460.267212 707.914001,429.768982 
	C707.910645,427.845215 707.372498,425.922333 707.083130,423.999084 
M343.150665,382.253204 
	C344.524780,384.526917 345.817719,386.854553 347.285461,389.066132 
	C363.992676,414.240784 401.467621,425.488007 428.102814,399.964233 
	C446.837341,382.011353 464.705170,363.154022 483.124481,344.534241 
	C470.172363,332.037537 457.816437,319.395691 444.681183,307.623413 
	C427.939575,292.619080 408.006134,286.822357 385.945587,291.713074 
	C345.096313,300.769196 324.801880,343.628998 343.150665,382.253204 
z" data-index="1" style="opacity: 1;"></path>
<path fill="#000000" opacity="1.000000" stroke="none" d="
M141.979950,274.000000 
	C141.977615,257.835297 141.963058,242.170563 141.979156,226.505875 
	C141.988220,217.686188 147.489059,210.610794 156.183640,210.255325 
	C170.607437,209.665619 185.072891,210.094833 199.764374,210.094833 
	C199.764374,301.757751 199.764374,393.003784 199.764374,484.866211 
	C190.724640,484.866211 181.786255,484.949310 172.850296,484.837952 
	C166.545532,484.759399 160.153992,485.001160 153.963531,484.046875 
	C145.931381,482.808685 141.996735,477.471649 141.988983,469.427399 
	C141.966003,445.597046 141.982208,421.766724 141.983078,397.936371 
	C141.983139,396.141724 141.983078,394.347076 141.983078,392.052063 
	C138.078873,392.052063 134.619125,392.174194 131.171158,392.024841 
	C125.269249,391.769165 121.926239,388.999420 121.852913,383.216736 
	C121.559319,360.062500 121.384071,336.902374 121.598663,313.748474 
	C121.671005,305.943390 124.941689,303.416656 132.960861,303.087524 
	C135.763412,302.972534 138.574646,303.069183 141.980560,303.069183 
	C141.980560,293.391266 141.980560,283.945618 141.979950,274.000000 
z" data-index="2"></path>
<path fill="#000000" opacity="1.000000" stroke="none" d="
M884.036316,441.000000 
	C884.037964,450.163177 884.056091,458.826447 884.033081,467.489563 
	C884.004395,478.288574 878.551453,484.355804 867.697021,484.628265 
	C854.059875,484.970612 840.407654,484.710724 826.375000,484.710724 
	C826.375000,393.247894 826.375000,301.911591 826.375000,210.196808 
	C840.970093,210.196808 855.567200,210.192261 870.164246,210.217316 
	C870.635193,210.218124 871.096985,210.554977 871.577515,210.679443 
	C879.662170,212.773453 883.987000,218.174850 884.000671,226.450989 
	C884.039062,249.608231 884.021240,272.765533 884.025513,295.922821 
	C884.025879,298.066437 884.025513,300.210052 884.025513,303.005280 
	C887.565430,303.005280 890.832886,302.911652 894.093201,303.024628 
	C900.994873,303.263763 904.097717,306.364594 904.116821,313.258636 
	C904.179260,335.916046 904.181702,358.573730 904.148193,381.231232 
	C904.136597,389.108978 901.182007,391.967590 893.256592,392.039032 
	C890.435364,392.064453 887.613770,392.043091 884.034546,392.043091 
	C884.034546,408.347443 884.034546,424.423737 884.036316,441.000000 
z" data-index="3" style="opacity: 1;"></path>
<path fill="#000000" opacity="1.000000" stroke="none" d="
M349.362671,823.302246 
	C342.015015,847.334656 320.693970,865.517029 296.015503,866.839172 
	C271.765350,868.138367 247.420975,867.681152 223.117661,867.972168 
	C222.666412,867.977600 222.211792,867.701599 221.550507,867.490356 
	C221.550507,823.222961 221.550507,778.983276 221.550507,734.436401 
	C223.060501,734.350342 224.344330,734.215332 225.628342,734.213379 
	C245.124344,734.184143 264.622284,733.996460 284.115814,734.209473 
	C301.293030,734.397095 317.428955,738.200867 330.863159,749.772156 
	C343.718719,760.845032 350.433472,775.023865 352.072601,791.817688 
	C353.102509,802.369629 352.526459,812.736755 349.362671,823.302246 
M275.489563,765.815918 
	C270.068329,765.815918 264.647095,765.815918 259.301697,765.815918 
	C259.301697,790.048889 259.301697,813.579712 259.301697,837.092224 
	C267.356293,837.092224 275.030396,837.448364 282.659729,837.015259 
	C296.826355,836.211121 307.829529,829.664612 312.561432,816.060791 
	C317.632111,801.483032 316.500061,787.035583 305.454041,775.050598 
	C297.722321,766.661682 287.237732,765.473145 275.489563,765.815918 
z" data-index="4" style="opacity: 1;"></path>
<path fill="#000000" opacity="1.000000" stroke="none" d="
M508.766296,754.248535 
	C527.355896,775.393250 531.763428,799.423462 522.624512,825.154602 
	C513.702087,850.276489 494.557648,864.561951 468.510773,869.019043 
	C445.911316,872.886230 424.267639,869.816650 405.404785,855.858948 
	C384.516449,840.402527 375.724274,818.959167 378.484985,793.457825 
	C381.563599,765.019592 397.268677,744.998047 424.367340,736.324219 
	C455.157227,726.468811 484.171326,730.493347 508.766296,754.248535 
M419.982635,816.325256 
	C431.111511,839.085327 455.972107,845.611084 475.185669,830.815613 
	C489.457977,819.825256 492.221588,792.987061 480.455139,777.846375 
	C472.479584,767.583740 461.591797,762.885803 448.892395,764.586121 
	C424.101227,767.905273 410.756836,791.740723 419.982635,816.325256 
z" data-index="5" style="opacity: 1;"></path>
<path fill="#000000" opacity="1.000000" stroke="none" d="
M296.952271,576.190674 
	C327.836609,581.872314 347.298370,604.858276 348.149872,636.241882 
	C348.694214,656.306396 343.243378,673.948547 328.416077,688.058167 
	C318.965088,697.051758 307.482635,701.842712 294.034546,703.629639 
	C291.500244,703.215393 289.683960,703.018433 287.867432,703.016418 
	C268.057800,702.994141 248.246414,702.862000 228.439835,703.108643 
	C223.944687,703.164612 222.843689,701.800720 222.903183,697.464172 
	C223.140671,680.154785 223.000595,662.840210 223.000671,645.527588 
	C223.000763,623.886780 223.005280,602.246033 222.995865,580.605225 
	C222.994827,578.214905 222.703094,575.900757 226.378113,575.971497 
	C246.977173,576.367859 267.578094,576.680298 288.179565,576.922058 
	C291.100525,576.956360 294.027863,576.447937 296.952271,576.190674 
M291.088745,607.151123 
	C280.238190,603.716797 269.179321,605.375854 258.354370,605.062927 
	C258.354370,628.869751 258.354370,651.933472 258.354370,675.041199 
	C265.351898,675.041199 272.003204,675.188049 278.645966,675.012817 
	C296.482208,674.542236 308.862732,664.153748 311.519714,646.490173 
	C313.583771,632.768372 308.919922,613.392944 291.088745,607.151123 
z" data-index="6" style="opacity: 1;"></path>
<path fill="#000000" opacity="1.000000" stroke="none" d="
M784.999573,868.010742 
	C755.865479,868.009766 727.231323,868.009766 698.292847,868.009766 
	C698.292847,823.409424 698.292847,779.170837 698.292847,734.594971 
	C732.959412,734.594971 767.561157,734.594971 802.586670,734.594971 
	C802.586670,744.444031 802.586670,754.470215 802.586670,764.852844 
	C780.302002,764.852844 758.031006,764.852844 735.367920,764.852844 
	C735.367920,771.906494 735.367920,778.626038 735.367920,785.875000 
	C755.340210,785.875000 775.403381,785.875000 795.739746,785.875000 
	C795.739746,795.660034 795.739746,804.928894 795.739746,814.735474 
	C775.787048,814.735474 755.726074,814.735474 735.329590,814.735474 
	C735.329590,822.332886 735.329590,829.404846 735.329590,837.017334 
	C757.967651,837.017334 780.679321,837.017334 803.700195,837.017334 
	C803.700195,847.461426 803.700195,857.377869 803.700195,868.011719 
	C797.687317,868.011719 791.593445,868.011719 784.999573,868.010742 
z" data-index="7"></path>
<path fill="#000000" opacity="1.000000" stroke="none" d="
M628.219482,733.758179 
	C645.334229,737.928406 658.431274,746.067139 662.461182,764.206665 
	C663.058716,766.896179 662.984375,769.734863 663.267578,773.050964 
	C651.891846,773.761536 641.010010,774.441284 629.640625,775.151428 
	C629.112061,767.673828 625.434265,762.554382 618.697083,760.289551 
	C610.086609,757.394958 601.349426,757.274902 593.007812,761.360168 
	C589.078430,763.284546 586.481018,766.379395 586.704102,771.236877 
	C586.941406,776.403198 590.657104,778.657837 594.632690,779.707214 
	C603.909668,782.155640 613.402954,783.771179 622.733948,786.032349 
	C630.121643,787.822571 637.619263,789.501160 644.677002,792.237732 
	C658.314392,797.525513 667.682922,806.927429 668.899475,822.254822 
	C670.256042,839.346497 664.004761,853.335205 648.708923,861.474548 
	C640.997253,865.578125 631.980896,868.231079 623.283264,869.270264 
	C605.740906,871.366272 588.062134,871.419128 571.338684,863.976135 
	C555.983276,857.141968 546.784607,841.825073 548.325378,825.312012 
	C554.183105,824.891174 560.105347,824.426575 566.033203,824.050903 
	C571.816162,823.684387 577.604858,823.408691 583.763245,823.072815 
	C583.866638,824.558105 583.910339,825.833069 584.050537,827.097351 
	C584.978638,835.465698 589.463196,840.839600 597.664429,842.946106 
	C606.872681,845.311401 616.029846,845.680420 624.866638,841.291809 
	C629.232849,839.123413 631.809998,835.815796 632.029053,830.775330 
	C632.256775,825.534241 629.532532,821.816589 625.076904,820.322327 
	C618.216797,818.021851 610.992554,816.828064 603.966492,814.996826 
	C592.781494,812.081482 581.144226,810.202637 570.563293,805.804382 
	C542.846008,794.282837 544.597839,757.785156 564.942261,743.022278 
	C573.515930,736.800842 583.212891,732.952576 593.545837,732.445923 
	C604.920349,731.888245 616.385193,733.172485 628.219482,733.758179 
z" data-index="8" style="opacity: 1;"></path>
<path fill="#000000" opacity="1.000000" stroke="none" d="
M491.710205,703.565552 
	C491.041992,704.310913 490.250610,704.960815 489.455536,704.965393 
	C477.963623,705.031250 466.471222,705.010559 454.492767,705.010559 
	C452.453766,698.996216 450.092712,693.028320 448.474487,686.865417 
	C447.579010,683.454834 445.899353,682.925476 442.852722,682.960632 
	C430.524384,683.103210 418.189728,683.197021 405.865784,682.927063 
	C402.096191,682.844604 400.727203,684.158997 399.864136,687.624695 
	C398.665833,692.436523 396.981812,697.159119 395.085968,701.746338 
	C394.514038,703.130188 392.568054,704.837036 391.217102,704.867432 
	C380.065063,705.118164 368.904907,705.009277 357.153198,705.009277 
	C361.581390,693.071350 365.898743,681.492065 370.173248,669.896973 
	C381.122772,640.194824 392.159637,610.523926 402.877075,580.738159 
	C404.487762,576.261719 406.527039,574.688232 411.304108,574.867249 
	C421.931030,575.265747 432.583191,574.991577 443.231873,574.991577 
	C459.429474,617.929260 475.507385,660.549622 491.710205,703.565552 
M420.287323,621.811829 
	C416.614777,633.393005 412.942230,644.974182 409.258911,656.589294 
	C419.086029,656.589294 428.462036,656.589294 438.288361,656.589294 
	C433.317596,641.736023 428.495026,627.325623 423.465393,612.296509 
	C422.405884,615.590881 421.520081,618.345093 420.287323,621.811829 
z" data-index="9" style="opacity: 1;"></path>
<path fill="#000000" opacity="1.000000" stroke="none" d="
M721.996460,676.002441 
	C723.636658,664.942261 720.138367,656.006226 714.696899,646.971497 
	C700.565918,623.509094 687.221741,599.572815 673.237061,575.258118 
	C675.087341,575.158264 676.617371,575.007507 678.147827,575.004089 
	C688.311462,574.981079 698.479614,575.161743 708.636108,574.891113 
	C712.023315,574.800842 713.606873,575.996338 715.028992,578.908508 
	C722.528198,594.265381 730.233765,609.521545 737.874634,624.809143 
	C738.680908,626.422424 739.532837,628.013000 740.633911,630.135010 
	C748.876648,613.129456 757.062988,596.645935 764.810425,579.958679 
	C766.645752,576.005493 768.739746,574.745239 772.997864,574.881531 
	C783.587830,575.220459 794.195923,574.993042 805.634583,574.993042 
	C800.409424,584.520752 795.625488,593.364197 790.729919,602.145386 
	C780.297424,620.858276 769.763062,639.514587 759.411804,658.272156 
	C758.437256,660.038330 758.104736,662.354736 758.086914,664.420959 
	C757.972229,677.720093 758.028259,691.020630 758.028259,704.667480 
	C746.515686,704.667480 734.271484,704.667480 721.996033,704.667480 
	C721.996033,695.342773 721.996033,685.922241 721.996460,676.002441 
z" data-index="10" style="opacity: 1;"></path>
<path fill="#000000" opacity="1.000000" stroke="none" d="
M629.014832,657.997253 
	C629.014709,663.465515 629.014709,668.434631 629.014709,673.927734 
	C647.428223,673.927734 665.487732,673.927734 683.780396,673.927734 
	C683.780396,684.392578 683.780396,694.330139 683.780396,704.641785 
	C653.568237,704.641785 623.330811,704.641785 592.670288,704.641785 
	C592.670288,661.741028 592.670288,618.703003 592.670288,575.327393 
	C604.475769,575.327393 616.385437,575.327393 629.014954,575.327393 
	C629.014954,602.660889 629.014954,630.079468 629.014832,657.997253 
z" data-index="11" style="opacity: 1;"></path>
<path fill="#000000" opacity="1.000000" stroke="none" d="
M535.001221,575.000305 
	C541.799194,575.000610 548.097473,575.000610 554.702698,575.000610 
	C554.702698,618.397339 554.702698,661.425720 554.702698,704.733643 
	C542.689575,704.733643 530.762390,704.733643 518.432556,704.733643 
	C518.432556,661.799438 518.432556,618.770081 518.432556,575.000000 
	C523.658386,575.000000 529.079956,575.000000 535.001221,575.000305 
z" data-index="12" style="opacity: 1;"></path>
<path fill="#000000" opacity="1.000000" stroke="none" d="
M801.396179,541.979126 
	C801.740967,531.801880 802.906006,521.432983 802.952332,511.059082 
	C803.157104,465.258728 803.085022,419.456818 802.997253,373.655731 
	C802.981445,365.428467 802.138306,357.200989 802.176025,348.975891 
	C802.232971,336.584076 802.968140,324.194824 802.996704,311.803528 
	C803.104614,265.003204 803.113342,218.202225 802.958313,171.402161 
	C802.938782,165.504730 801.725037,159.611237 801.075317,153.308838 
	C802.242310,157.087189 804.381531,161.266937 804.405823,165.458923 
	C804.724792,220.616486 804.793945,275.775726 804.828674,330.934601 
	C804.869568,395.926483 804.887817,460.918671 804.669250,525.909912 
	C804.651428,531.204956 802.735413,536.493530 801.396179,541.979126 
z" data-index="13"></path>
<path fill="#000000" opacity="1.000000" stroke="none" d="
M296.535706,576.107117 
	C294.027863,576.447937 291.100525,576.956360 288.179565,576.922058 
	C267.578094,576.680298 246.977173,576.367859 226.378113,575.971497 
	C222.703094,575.900757 222.994827,578.214905 222.995865,580.605225 
	C223.005280,602.246033 223.000763,623.886780 223.000671,645.527588 
	C223.000595,662.840210 223.140671,680.154785 222.903183,697.464172 
	C222.843689,701.800720 223.944687,703.164612 228.439835,703.108643 
	C248.246414,702.862000 268.057800,702.994141 287.867432,703.016418 
	C289.683960,703.018433 291.500244,703.215393 293.632507,703.582764 
	C270.017334,704.408325 246.086304,704.972961 221.810425,705.545715 
	C221.810425,661.654419 221.810425,618.595337 221.810425,574.996643 
	C223.835083,574.996643 225.780853,574.997070 227.726608,574.996582 
	C245.890274,574.991943 264.054382,574.918091 282.217316,575.030212 
	C286.853119,575.058777 291.485291,575.676514 296.535706,576.107117 
z" data-index="14" style="opacity: 1;"></path>
<path fill="#000000" opacity="1.000000" stroke="none" d="
M732.513000,546.567749 
	C734.184448,545.853943 736.062866,545.113037 737.946228,545.100525 
	C752.589600,545.002930 767.234741,545.135315 781.877502,544.998779 
	C787.328491,544.947998 792.774475,544.369995 798.657349,544.038818 
	C796.362549,545.045837 793.641724,546.884644 790.902527,546.912476 
	C771.511230,547.109131 752.116150,546.934387 732.513000,546.567749 
z" data-index="15"></path>

<path fill="#000000" opacity="1.000000" stroke="none" d="
M706.995911,424.460938 
	C707.372498,425.922333 707.910645,427.845215 707.914001,429.768982 
	C707.966919,460.267212 707.846069,490.766266 708.036743,521.263367 
	C708.076660,527.648315 709.207031,534.026428 709.764832,540.818848 
	C708.761719,538.333435 707.031616,535.440918 707.016968,532.539795 
	C706.835571,496.668213 706.904419,460.795349 706.995911,424.460938 
z" data-index="17"></path>
<path fill="#000000" opacity="1.000000" stroke="none" d="
M798.784668,150.675125 
	C772.878052,150.626114 746.709045,150.094269 720.541992,150.176147 
	C716.886414,150.187576 713.240295,153.214447 709.226929,154.869370 
	C711.215027,150.759537 714.831665,148.878357 719.521179,148.877228 
	C743.795593,148.871353 768.070068,148.823013 792.344116,148.917526 
	C794.405579,148.925552 796.463379,149.875122 798.784668,150.675125 
z" data-index="18"></path>
<path fill="#000000" opacity="1.000000" stroke="none" d="
M711.840576,543.882629 
	C718.051697,544.235352 724.460510,544.859009 731.286865,545.864380 
	C724.934021,547.569397 718.225952,548.307068 711.840576,543.882629 
z" data-index="19"></path>
<path fill="#000000" opacity="1.000000" stroke="none" d="
M710.709961,542.798706 
	C710.929932,542.701660 711.236816,542.777405 711.487305,543.122742 
	C711.169617,543.327454 710.958252,543.187134 710.709961,542.798706 
z" data-index="20"></path>
<path fill="#000000" opacity="1.000000" stroke="none" d="
M709.760376,541.478027 
	C709.991455,541.446045 710.269226,541.632751 710.469116,542.081177 
	C710.103699,542.211487 709.908997,541.996094 709.760376,541.478027 
z" data-index="21"></path>
<path fill="#000000" opacity="1.000000" stroke="none" d="
M801.036499,152.680908 
	C800.832092,152.734299 800.555664,152.533051 800.200134,152.081512 
	C800.402161,152.029572 800.683289,152.227921 801.036499,152.680908 
z" data-index="22"></path>
<path fill="#000000" opacity="1.000000" stroke="none" d="
M800.066956,151.625641 
	C799.871460,151.715866 799.576172,151.556396 799.152100,151.174683 
	C799.337891,151.093613 799.652588,151.234787 800.066956,151.625641 
z" data-index="23"></path>

<path fill="#000000" opacity="1.000000" stroke="none" d="
M275.986328,765.819458 
	C287.237732,765.473145 297.722321,766.661682 305.454041,775.050598 
	C316.500061,787.035583 317.632111,801.483032 312.561432,816.060791 
	C307.829529,829.664612 296.826355,836.211121 282.659729,837.015259 
	C275.030396,837.448364 267.356293,837.092224 259.301697,837.092224 
	C259.301697,813.579712 259.301697,790.048889 259.301697,765.815918 
	C264.647095,765.815918 270.068329,765.815918 275.986328,765.819458 
z" data-index="25" style="opacity: 1; visibility: hidden;"></path>

<path fill="#000000" opacity="1.000000" stroke="none" d="
M291.451599,607.303833 
	C308.919922,613.392944 313.583771,632.768372 311.519714,646.490173 
	C308.862732,664.153748 296.482208,674.542236 278.645966,675.012817 
	C272.003204,675.188049 265.351898,675.041199 258.354370,675.041199 
	C258.354370,651.933472 258.354370,628.869751 258.354370,605.062927 
	C269.179321,605.375854 280.238190,603.716797 291.451599,607.303833 
z" data-index="27" style="opacity: 1; visibility: hidden;"></path>

</svg>