<svg xmlns="http://www.w3.org/2000/svg" version="1.1" viewBox="-5.0 -10.0 110.0 110.0">
 <path d="m37.422 27.898c-0.80078-0.21875-1.6289 0.23828-1.8516 1.0312l-10.121 35.711c-0.23047 0.80078 0.23828 1.6289 1.0312 1.8516 0.14062 0.039062 0.26953 0.058593 0.41016 0.058593 0.64844 0 1.2617-0.42969 1.4414-1.0898l10.121-35.699c0.23047-0.80078-0.23828-1.6289-1.0312-1.8516z"/>
 <path d="m90.5 86h-1.7812c0.17188-0.46875 0.28125-0.96875 0.28125-1.5v-75c0-2.4805-2.0195-4.5-4.5-4.5h-12c-1.1602 0-2.1992 0.44922-3 1.1719-0.80078-0.71875-1.8398-1.1719-3-1.1719h-12c-2.4805 0-4.5 2.0195-4.5 4.5v0.89844c-0.44141-0.32813-0.92969-0.60156-1.4883-0.76172l-11.551-3.2695c-1.1602-0.32813-2.3711-0.19141-3.4219 0.39844-1.0508 0.58984-1.8086 1.5508-2.1406 2.6992l-19.707 69.566c-0.67969 2.3906 0.71094 4.8789 3.1016 5.5586l5 1.4219h-10.289c-2.4805 0-4.5 2.0195-4.5 4.5s2.0195 4.5 4.5 4.5h81c2.4805 0 4.5-2.0195 4.5-4.5s-2.0195-4.5-4.5-4.5zm-19.5-72v-4.5c0-0.82812 0.67188-1.5 1.5-1.5h12c0.82812 0 1.5 0.67188 1.5 1.5v7.5h-15zm0 6h15v54h-15zm0 60v-3h15v7.5c0 0.82812-0.67188 1.5-1.5 1.5h-12c-0.82812 0-1.5-0.67188-1.5-1.5zm-18-70.5c0-0.82812 0.67188-1.5 1.5-1.5h12c0.82812 0 1.5 0.67188 1.5 1.5v7.5h-15zm0 10.5h15v54h-15zm0 57h15v7.5c0 0.82812-0.67188 1.5-1.5 1.5h-12c-0.82812 0-1.5-0.67188-1.5-1.5zm-18.711-66.711c0.10938-0.39062 0.35938-0.71094 0.71094-0.89844 0.23047-0.12891 0.48047-0.19141 0.73047-0.19141 0.14062 0 0.28125 0.019531 0.41016 0.058593l11.551 3.2695c0.80078 0.23047 1.2617 1.0586 1.0312 1.8516l-2.0898 7.3594-14.43-4.0898 2.0898-7.3594zm-2.8984 10.242 14.43 4.0898-13.91 49.059-14.43-4.0898zm-16.82 59.309 2.0898-7.3594 14.43 4.0898-2.0898 7.3594c-0.10938 0.39062-0.35938 0.71094-0.71094 0.89844-0.35156 0.19922-0.75 0.23828-1.1406 0.12891l-11.539-3.2695c-0.80078-0.23047-1.2617-1.0586-1.0312-1.8516zm17.32 4.9102 18.109-63.871v63.621c0 0.53125 0.10938 1.0312 0.28125 1.5h-18.98c0.25-0.37891 0.46094-0.78906 0.58984-1.25zm58.609 7.25h-81c-0.82812 0-1.5-0.67188-1.5-1.5s0.67188-1.5 1.5-1.5h81c0.82812 0 1.5 0.67188 1.5 1.5s-0.67188 1.5-1.5 1.5z"/>
 <path d="m78.5 26c-0.82812 0-1.5 0.67188-1.5 1.5v39c0 0.82812 0.67188 1.5 1.5 1.5s1.5-0.67188 1.5-1.5v-39c0-0.82812-0.67188-1.5-1.5-1.5z"/>
 <path d="m60.5 26c-0.82812 0-1.5 0.67188-1.5 1.5v39c0 0.82812 0.67188 1.5 1.5 1.5s1.5-0.67188 1.5-1.5v-39c0-0.82812-0.67188-1.5-1.5-1.5z"/>
</svg>
