<svg xmlns="http://www.w3.org/2000/svg" xmlns:xlink="http://www.w3.org/1999/xlink" version="1.1" x="0px" y="0px" viewBox="0 0 32 32" style="enable-background:new 0 0 32 32;" xml:space="preserve"><g><path d="M25,23c-3.788,0-6.798-3.205-9.708-6.305C12.543,13.766,9.946,11,7,11c-2.757,0-5,2.243-5,5s2.243,5,5,5   c1.716,0,3.468-0.931,5.68-3.019c0.401-0.377,1.035-0.36,1.414,0.041c0.379,0.401,0.361,1.035-0.041,1.414   C12.294,21.096,9.904,23,7,23c-3.86,0-7-3.141-7-7c0-3.86,3.14-7,7-7c3.491,0,6.317,2.698,9.012,5.542C18.701,11.701,21.521,9,25,9   c3.859,0,7,3.14,7,7C32,19.859,28.859,23,25,23z M17.385,16c2.508,2.654,4.919,5,7.615,5c2.757,0,5-2.243,5-5s-2.243-5-5-5   C22.303,11,19.893,13.346,17.385,16z"/></g></svg>
