<svg xmlns:dc="http://purl.org/dc/elements/1.1/" xmlns:cc="http://creativecommons.org/ns#" xmlns:rdf="http://www.w3.org/1999/02/22-rdf-syntax-ns#" xmlns:svg="http://www.w3.org/2000/svg" xmlns="http://www.w3.org/2000/svg" xmlns:sodipodi="http://sodipodi.sourceforge.net/DTD/sodipodi-0.dtd" xmlns:inkscape="http://www.inkscape.org/namespaces/inkscape" version="1.1" x="0px" y="0px" viewBox="0 0 100 100"><g transform="translate(0,-952.36218)"><path style="text-indent:0;text-transform:none;direction:ltr;block-progression:tb;baseline-shift:baseline;enable-background:accumulate;" d="m 49.984414,973.17975 c -7.7495,0 -14.0626,6.25786 -14.0626,14 0,3.36234 1.2164,6.42848 3.2188,8.84375 -1.9469,0.93792 -3.7401,2.16098 -5.3125,3.65625 -0.8716,-0.72783 -1.8237,-1.38372 -2.8437,-1.90625 1.3261,-1.71024 2.125,-3.83336 2.125,-6.15625 0,-5.65654 -4.634,-10.1875 -10.2813,-10.1875 -5.6473,0 -10.2813,4.53096 -10.2813,10.1875 0,2.3318 0.821,4.474 2.1563,6.1875 -4.5001,2.30565 -7.9063002,6.74855 -7.9063002,13.12505 l 0,6.0312 c 0,0.6106 0.2645,0.8015 0.625,1.0625 6.6728002,4.634 13.5221002,6.299 20.3438002,4.7812 l 0,0.25 c 0.021,0.5226 0.2909,0.6761 0.625,0.9375 14.3742,10.0829 29.0626,10.0472 43.2812,0.031 0.5431,-0.4029 0.487,-0.6022 0.5626,-1.2187 6.7506,1.4802 13.605099,-0.1369 20.281199,-4.7812 0.5488,-0.4144 0.6913,-0.6035 0.6875,-1.2188 l 0,-5.875 c 0,-6.393 -3.3846,-10.8666 -7.875,-13.15625 1.3261,-1.71024 2.125,-3.83336 2.125,-6.15625 0,-5.65654 -4.6339,-10.1875 -10.281299,-10.1875 -5.6473,0 -10.25,4.53096 -10.25,10.1875 0,2.32289 0.7989,4.44601 2.125,6.15625 -1.0163,0.5167 -1.9825,1.16702 -2.875,1.90625 -1.5667,-1.48821 -3.3463,-2.69294 -5.2812,-3.625 2.0159,-2.41809 3.2188,-5.50372 3.2188,-8.875 0,-7.74215 -6.339,-14 -14.125,-14 z m 0,2 c 6.7232,0 12.125,5.34456 12.125,12 0,6.61311 -5.4054,11.96875 -12.125,11.96875 -6.6772,0 -12.0626,-5.35564 -12.0626,-11.96875 0,-6.65544 5.3818,-12 12.0626,-12 z m -27.1563,8.25 c 4.5806,0 8.2813,3.61625 8.2813,8.1875 0,4.52771 -3.7007,8.15625 -8.2813,8.15625 -2.2428,0 -4.2613,-0.85974 -5.75,-2.28125 -0.029,-0.0333 -0.06,-0.0646 -0.094,-0.0937 -1.4967,-1.47531 -2.4376,-3.5174 -2.4376,-5.78125 0,-4.57125 3.7007,-8.1875 8.2813,-8.1875 z m 54.3437,0 c 4.580699,0 8.281299,3.61625 8.281299,8.1875 0,4.52771 -3.7006,8.15625 -8.281299,8.15625 -4.5806,0 -8.25,-3.62854 -8.25,-8.15625 0,-4.57126 3.6694,-8.1875 8.25,-8.1875 z m -36.5624,14.125 c 2.4962,2.22803 5.7686,3.59375 9.375,3.59375 3.6196,0 6.905,-1.3698 9.4062,-3.59375 6.1863,2.71195 10.8438,8.24055 10.8438,16.87505 l 0,8.1249 c -13.5299,9.4103 -26.7855,9.4659 -40.4688,-0.031 l 0,-8.0937 c 0,-8.6438 4.6465,-14.1433 10.8438,-16.875 z m -11.0938,1.75 c 1.0753,0.49241 2.0505,1.11635 2.9375,1.84375 -2.8593,3.3473 -4.6875,7.7832 -4.6875,13.2813 l 0,6.3125 c -6.3314,1.5565 -12.5626,0.163 -18.9688002,-4.2188 l 0,-5.5937 c 0,-5.9491 3.1164002,-9.6722 7.3438002,-11.5938 1.8005,1.5263 4.1444,2.4375 6.6875,2.4375 2.5507,0 4.8849,-0.9343 6.6875,-2.46875 z m 40.9688,0 c 1.8044,1.54135 4.1303,2.46875 6.6874,2.46875 2.548799,0 4.885499,-0.9364 6.687599,-2.46875 4.209,1.90345 7.3437,5.65975 7.3437,11.62505 l 0,5.5937 c -6.4218,4.4171 -12.686599,5.7397 -18.968699,4.2188 l 0,-6.3125 c 0,-5.5046 -1.8143,-9.9612 -4.6876,-13.3125 0.8895,-0.7183 1.8832,-1.32564 2.9376,-1.81255 z" fill-opacity="1" fill-rule="evenodd" stroke="none" marker="none" visibility="visible" display="inline" overflow="visible"/></g></svg>
