<svg xmlns="http://www.w3.org/2000/svg" xmlns:xlink="http://www.w3.org/1999/xlink" version="1.1" x="0px" y="0px" viewBox="0 0 540 540" style="enable-background:new 0 0 540 540;" xml:space="preserve"><g><g><path d="M377.009,496.716c-52.47,16.028-108.101,19.814-161.127,10.93c-83.114-13.915-143.074-55.417-178.738-87.783    c-19.317-17.53-26.734-43.803-19.357-68.564L93.283,92.036c3.143-10.546,10.676-19.127,20.684-23.589l111.691-49.792    c15.723-7.011,34.131-2.449,44.765,11.094l32.682,41.628c8.722,11.11,7.65,26.901-2.493,36.731l-40.496,39.238    c-10.062,9.75-25.807,10.385-36.621,1.476l-8.095-6.668c-3.854-3.173-9.212-3.751-13.653-1.474l-7.181,3.684    c-4.444,2.28-7.101,6.974-6.766,11.959l10.032,155.309c0.267,4.134-2.867,7.701-7.001,7.968c-4.102,0.265-7.7-2.867-7.968-7.001    l-10.031-155.29c-0.735-10.947,5.107-21.274,14.888-26.292l7.181-3.684c9.771-5.011,21.562-3.738,30.036,3.243l8.095,6.669    c4.915,4.049,12.069,3.761,16.646-0.671l40.495-39.238c4.61-4.468,5.098-11.646,1.133-16.696l-32.682-41.628    c-6.38-8.126-17.425-10.864-26.858-6.656L120.074,82.147c-6.004,2.677-10.524,7.826-12.402,14.127L32.175,355.537    c-5.728,19.227,0.044,39.602,15.049,53.219c34.177,31.016,91.61,70.782,171.136,84.097c51.876,8.692,106.38,4.705,157.62-11.524    c2.231-0.708,4.661-0.332,6.575,1.012c48.736,34.228,108.921,27.294,127.465,24.068V270.256    c-57.882-28.188-129.981,0.794-150.211,60.624c-1.326,3.924-5.582,6.031-9.507,4.702c-3.924-1.326-6.029-5.583-4.702-9.507    c23.577-69.73,108.565-103.042,175.477-67.004c2.429,1.308,3.943,3.844,3.943,6.603v246.884c0,3.445-2.348,6.448-5.692,7.279    C478.492,529.944,419.23,524.778,377.009,496.716z"/><path d="M360.351,358.766c-14.095-40.21-52.778-67.226-96.259-67.226c-34.327,0-66.111,16.767-85.023,44.852    c-2.313,3.436-6.973,4.346-10.41,2.031c-3.436-2.313-4.345-6.974-2.031-10.41c21.703-32.23,58.139-51.473,97.465-51.473    c49.843,0,94.215,31.05,110.415,77.263c1.37,3.909-0.688,8.188-4.597,9.56C365.985,364.735,361.718,362.662,360.351,358.766z"/></g></g></svg>
